<svg xmlns="http://www.w3.org/2000/svg" width="900" height="600" viewBox="0 0 900 600"><defs><linearGradient id="sky" x1="0" y1="0" x2="0" y2="1"><stop stop-color="#071018"/><stop offset="1" stop-color="#1b2830"/></linearGradient><linearGradient id="sea" x1="0" y1="0" x2="0" y2="1"><stop stop-color="#203d47"/><stop offset="1" stop-color="#071219"/></linearGradient><radialGradient id="glow"><stop stop-color="#75b7a7" stop-opacity=".8"/><stop offset="1" stop-color="#75b7a7" stop-opacity="0"/></radialGradient><filter id="grain"><feTurbulence baseFrequency=".9" numOctaves="2" seed="8" type="fractalNoise"/><feColorMatrix values="1 0 0 0 0 0 1 0 0 0 0 0 1 0 0 0 0 0 .14 0"/><feBlend mode="soft-light" in2="SourceGraphic"/></filter></defs><rect width="900" height="600" fill="url(#sky)"/><circle cx="690" cy="125" r="120" fill="url(#glow)" opacity=".38"/><g filter="url(#grain)"><rect x="80" y="120" width="740" height="380" rx="10" fill="#1c1714"/><path d="M80 220 H820 M230 120 V500 M670 120 V500" stroke="#4f3829" stroke-width="22"/><circle cx="450" cy="230" r="60" fill="#d39a45" opacity=".15"/><path d="M450 120 V190" stroke="#8d6842" stroke-width="8"/><path d="M420 195 Q450 170 480 195 L470 250 H430Z" fill="#d39a45"/><rect x="280" y="365" width="340" height="34" fill="#65452e"/><rect x="315" y="395" width="24" height="95" fill="#4b3225"/><rect x="560" y="395" width="24" height="95" fill="#4b3225"/><circle cx="165" cy="430" r="55" fill="#3c2b22" stroke="#8b6240" stroke-width="10"/><circle cx="735" cy="430" r="55" fill="#3c2b22" stroke="#8b6240" stroke-width="10"/><path d="M110 160 L180 160 L170 250 L120 250Z M720 155 L790 155 L780 245 L730 245Z" fill="#30444c"/></g><path d="M0 500 Q120 470 240 500 T480 500 T720 500 T960 500 V600 H0Z" fill="url(#sea)"/><path d="M0 520 Q140 488 280 520 T560 520 T840 520" fill="none" stroke="#7fa7a5" stroke-opacity=".23" stroke-width="7"/><rect x="0" y="0" width="900" height="600" fill="none" stroke="#d39a45" stroke-opacity=".22" stroke-width="8"/></svg>