<svg xmlns="http://www.w3.org/2000/svg" width="900" height="600" viewBox="0 0 900 600"><defs><linearGradient id="sky" x1="0" y1="0" x2="0" y2="1"><stop stop-color="#071018"/><stop offset="1" stop-color="#1b2830"/></linearGradient><linearGradient id="sea" x1="0" y1="0" x2="0" y2="1"><stop stop-color="#203d47"/><stop offset="1" stop-color="#071219"/></linearGradient><radialGradient id="glow"><stop stop-color="#75b7a7" stop-opacity=".8"/><stop offset="1" stop-color="#75b7a7" stop-opacity="0"/></radialGradient><filter id="grain"><feTurbulence baseFrequency=".9" numOctaves="2" seed="8" type="fractalNoise"/><feColorMatrix values="1 0 0 0 0 0 1 0 0 0 0 0 1 0 0 0 0 0 .14 0"/><feBlend mode="soft-light" in2="SourceGraphic"/></filter><filter id="blur"><feGaussianBlur stdDeviation="18"/></filter></defs><rect width="900" height="600" fill="url(#sky)"/><circle cx="690" cy="125" r="120" fill="url(#glow)" opacity=".38"/><g filter="url(#grain)"><path d="M0 360 C180 330 250 390 430 360 S720 330 900 370" fill="none" stroke="#d7e2df" stroke-opacity=".16" stroke-width="28" filter="url(#blur)"/><path d="M70 480 L120 150 L250 190 L260 480Z M330 480 L360 90 L510 160 L520 480Z M590 480 L630 190 L800 140 L820 480Z" fill="#11171a"/><path d="M120 150 L165 220 L210 170 M360 90 L410 190 L470 130 M630 190 L700 250 L770 160" fill="#071018"/><path d="M75 420 L825 390" stroke="#69513e" stroke-width="20"/><path d="M150 350 L220 500 M430 300 L510 500 M700 320 L770 500" stroke="#3e3028" stroke-width="16"/></g><path d="M0 500 Q120 470 240 500 T480 500 T720 500 T960 500 V600 H0Z" fill="url(#sea)"/><path d="M0 520 Q140 488 280 520 T560 520 T840 520" fill="none" stroke="#7fa7a5" stroke-opacity=".23" stroke-width="7"/><rect x="0" y="0" width="900" height="600" fill="none" stroke="#d39a45" stroke-opacity=".22" stroke-width="8"/></svg>